<svg xmlns="http://www.w3.org/2000/svg" version="1.1" width="2" height="2">
<path d="M0 0 C8.32857189 4.81883495 13.30502741 11.71008908 16.125 20.875 C17.09774516 30.84563784 16.12951348 39.21636403 9.875 47.375 C8.21568314 49.38000787 6.65065675 51.20632422 4.65625 52.87890625 C2.84580968 54.74496961 2.84580968 54.74496961 3.375 59.4375 C-8.505 59.4375 -20.385 59.4375 -32.625 59.4375 C-32.625 57.1275 -32.625 54.8175 -32.625 52.4375 C-33.52025391 52.05271484 -33.52025391 52.05271484 -34.43359375 51.66015625 C-40.077735 48.51110775 -43.41567296 41.95991923 -45.15234375 35.91796875 C-46.81988633 27.16681556 -46.08878243 19.213121 -41.625 11.4375 C-31.90579433 -2.1646813 -15.40521744 -7.22119568 0 0 Z " fill="#6FC9EC" transform="translate(46.625,4.5625)"/>
<path d="M0 0 C6.32085262 0.41222952 11.83098004 2.25755544 17 6 C20.41241819 10.78147219 20.39748877 16.33578498 20 22 C19.505 22.495 19.505 22.495 19 23 C18.86152127 25.56185643 18.89864704 27.65539993 19.625 30.125 C19.74875 30.74375 19.8725 31.3625 20 32 C19.34 32.99 18.68 33.98 18 35 C18.15812774 37.07348212 18.15812774 37.07348212 18.8125 39.25 C19.86403676 43.23031363 20.40323982 46.82267877 21 51 C9.12 51 -2.76 51 -15 51 C-14 37 -14 37 -12 34 C-11.83300768 30.87478167 -11.83300768 30.87478167 -12 28 C-12.66 28 -13.32 28 -14 28 C-12.84385523 11.75417267 -12.84385523 11.75417267 -7.73046875 4.40625 C-5.42395002 2.53187812 -3.89121411 2.72511377 -1 3 C-0.67 2.01 -0.34 1.02 0 0 Z " fill="#FEED8E" transform="translate(29,13)"/>
<path d="M0 0 C6.32085262 0.41222952 11.83098004 2.25755544 17 6 C20.41241819 10.78147219 20.39748877 16.33578498 20 22 C19.505 22.495 19.505 22.495 19 23 C18.86152127 25.56185643 18.89864704 27.65539993 19.625 30.125 C19.74875 30.74375 19.8725 31.3625 20 32 C19.34 32.99 18.68 33.98 18 35 C17.83300768 38.12521833 17.83300768 38.12521833 18 41 C17.13375 40.21625 16.2675 39.4325 15.375 38.625 C12.44943553 36.16613272 9.72463238 34.97549896 6 34 C7.24023608 30.27929177 8.95730148 29.37478909 12 27 C12.66 26.01 13.32 25.02 14 24 C14.66 24 15.32 24 16 24 C16.33 21.69 16.66 19.38 17 17 C14.69 17.33 12.38 17.66 10 18 C9.69707031 17.43410156 9.39414062 16.86820313 9.08203125 16.28515625 C6.58056809 11.73045655 6.58056809 11.73045655 2.5 8.75 C-1.06726025 9.10672602 -2.48876831 10.48876831 -5 13 C-5.804375 14.36125 -5.804375 14.36125 -6.625 15.75 C-7.07875 16.4925 -7.5325 17.235 -8 18 C-8.99 18 -9.98 18 -11 18 C-9.51082643 22.91427279 -6.55813338 26.40319126 -3 30 C-2.34 30.33 -1.68 30.66 -1 31 C-1 31.99 -1 32.98 -1 34 C-1.53109375 34.24234375 -2.0621875 34.4846875 -2.609375 34.734375 C-6.73992624 36.69412559 -9.97110547 38.46628972 -13 42 C-13.625 39.6875 -13.625 39.6875 -14 37 C-13.34 36.01 -12.68 35.02 -12 34 C-11.83300768 30.87478167 -11.83300768 30.87478167 -12 28 C-12.66 28 -13.32 28 -14 28 C-12.84385523 11.75417267 -12.84385523 11.75417267 -7.73046875 4.40625 C-5.42395002 2.53187812 -3.89121411 2.72511377 -1 3 C-0.67 2.01 -0.34 1.02 0 0 Z " fill="#FAB2C1" transform="translate(29,13)"/>
<path d="M0 0 C3.31360876 1.38067032 4.86477484 2.7693742 6.75 5.8125 C7.17796875 6.47894531 7.6059375 7.14539062 8.046875 7.83203125 C9 10 9 10 9 15 C-2.88 15 -14.76 15 -27 15 C-25.79310345 6.55172414 -25.79310345 6.55172414 -22 2 C-19.75 1.125 -19.75 1.125 -18 1 C-17.54625 1.804375 -17.0925 2.60875 -16.625 3.4375 C-15.25274335 6.08856572 -15.25274335 6.08856572 -13 7 C-7.36680671 7.61181079 -7.36680671 7.61181079 -2.5625 5.1875 C-0.83534256 2.99617076 -0.83534256 2.99617076 0 0 Z " fill="#FCFCFA" transform="translate(41,49)"/>
</svg>